<svg xmlns="http://www.w3.org/2000/svg" viewBox="0 0 64 64" width="64" height="64">
  <defs>
    <mask id="note-mask">
      <rect width="64" height="64" fill="white"/>
      <g transform="translate(15,5) scale(0.26)" fill="black">
        <ellipse cx="30" cy="170" rx="20" ry="14" transform="rotate(-20 30 170)"/>
        <rect x="46" y="28" width="5" height="148"/>
        <path d="M51 28 C68 44, 74 66, 57 92 C68 72, 63 50, 51 40 Z"/>
      </g>
    </mask>
  </defs>
  <rect width="64" height="64" rx="8" fill="#1a1a2e"/>
  <path d="M44.1,58.0 L13.2,58.0 L13.2,42.7 L10.8,40.0 L12.6,35.8 L8.4,9.7 L21.1,9.6 L21.1,6.0 L23.2,6.6 L24.2,12.0 L29.1,13.0 L29.4,14.0 L34.5,13.0 L36.4,13.8 L38.1,16.7 L40.0,15.5 L42.9,18.3 L47.1,16.5 L47.9,17.9 L55.6,18.6 L48.0,22.1 L39.8,29.6 L40.2,30.4 L38.5,30.7 L38.5,35.9 L35.0,39.0 L36.4,41.4 L35.4,47.4 L43.7,53.8 L44.9,55.7 L45.1,58.0 L44.1,58.0 Z" fill="#c9a84c" mask="url(#note-mask)"/>
</svg>
