<?xml version="1.0" encoding="UTF-8" standalone="no"?>
<svg
   xmlns:dc="http://purl.org/dc/elements/1.1/"
   xmlns:cc="http://creativecommons.org/ns#"
   xmlns:rdf="http://www.w3.org/1999/02/22-rdf-syntax-ns#"
   xmlns:svg="http://www.w3.org/2000/svg"
   xmlns="http://www.w3.org/2000/svg"
   xmlns:sodipodi="http://sodipodi.sourceforge.net/DTD/sodipodi-0.dtd"
   xmlns:inkscape="http://www.inkscape.org/namespaces/inkscape"
   width="344.4191"
   height="400.76559"
   version="1.1"
   viewBox="0 0 344.4191 400.76559"
   id="svg1377"
   sodipodi:docname="minnesota-hometown-heart-dddddd.svg"
   inkscape:version="1.0.1 (3bc2e813f5, 2020-09-07)">
  <defs
     id="defs1381" />
  <sodipodi:namedview
     pagecolor="#ffffff"
     bordercolor="#666666"
     borderopacity="1"
     objecttolerance="10"
     gridtolerance="10"
     guidetolerance="10"
     inkscape:pageopacity="0"
     inkscape:pageshadow="2"
     inkscape:window-width="1366"
     inkscape:window-height="705"
     id="namedview1379"
     showgrid="false"
     fit-margin-top="10"
     fit-margin-left="10"
     fit-margin-right="10"
     fit-margin-bottom="20"
     inkscape:showpageshadow="false"
     inkscape:zoom="0.98052362"
     inkscape:cx="381.31894"
     inkscape:cy="239.84065"
     inkscape:window-x="-8"
     inkscape:window-y="-8"
     inkscape:window-maximized="1"
     inkscape:current-layer="g1375"
     inkscape:document-rotation="0"
     lock-margins="false" />
  <metadata
     id="metadata1367">
    <rdf:RDF>
      <cc:Work
         rdf:about="">
        <dc:format>image/svg+xml</dc:format>
        <dc:type
           rdf:resource="http://purl.org/dc/dcmitype/StillImage" />
        <dc:title></dc:title>
      </cc:Work>
    </rdf:RDF>
  </metadata>
  <g
     transform="translate(-11.647441,-121.96967)"
     id="g1375">
    <path
       d="m 50.407725,501.97404 c -0.06975,-0.18035 -0.07764,-2.51996 -0.01911,-5.19926 0.05972,-2.67929 0.19206,-11.4902 0.294135,-19.57968 0.460969,-36.5441 0.768123,-60.02855 0.929942,-71.10549 0.188955,-12.93591 0.138312,-14.09544 -0.690774,-15.81921 -0.656184,-1.3642 -2.976225,-3.77266 -4.228681,-4.38969 -1.990433,-0.9807 -3.194802,-1.43169 -3.8233,-1.43169 -0.355002,0 -0.800993,-0.0834 -0.991119,-0.18489 -0.588939,-0.3152 -2.296297,-2.83576 -2.920566,-4.31181 -0.689102,-1.6292 -2.440414,-4.73463 -3.433922,-6.08933 -1.156521,-1.57679 -1.331861,-1.92773 -1.330786,-2.66329 0.0024,-1.67862 0.739697,-2.94087 2.13037,-3.64796 0.425018,-0.21595 1.429061,-0.97115 2.231225,-1.67807 0.802165,-0.7069 1.523229,-1.28528 1.60237,-1.28528 0.260405,0 3.301104,-3.0811 4.222709,-4.27861 1.160797,-1.50854 2.267082,-4.06839 2.661618,-6.15908 0.31014,-1.6432 0.30037,-3.78914 -0.0375,-8.21848 -0.09125,-1.19544 -0.05184,-1.6351 0.187761,-2.09855 0.358298,-0.69288 0.419189,-4.16466 0.09436,-5.38272 -0.425591,-1.59597 -0.81363,-4.46804 -1.088535,-8.05676 -0.201616,-2.632 -0.817095,-4.57195 -2.204614,-6.94859 -2.491774,-4.26833 -2.989364,-5.52986 -3.800128,-9.63313 -0.29521,-1.49426 -0.859281,-3.77075 -1.253483,-5.0588 l -0.71674,-2.34204 0.05781,-6.08933 c 0.03177,-3.34912 0.142135,-6.67961 0.244997,-7.40103 0.494724,-3.46736 0.444081,-4.0101 -0.725889,-7.77559 l -0.669466,-2.15469 -0.0633,-4.49671 c -0.03488,-2.47314 -0.147867,-5.80219 -0.251184,-7.39768 -0.103435,-1.59554 -0.190149,-4.58868 -0.192777,-6.65142 -0.0024,-2.06279 -0.08958,-4.59369 -0.193255,-5.62423 -0.103675,-1.03048 -0.267762,-4.65604 -0.364629,-8.05675 -0.113708,-3.99482 -0.268001,-6.58095 -0.435744,-7.30715 -0.542452,-2.34888 -2.954487,-9.39378 -4.589392,-13.40341 -0.316638,-0.77662 -0.663589,-1.80434 -0.771038,-2.2838 -0.107449,-0.47943 -0.368809,-1.31177 -0.580817,-1.84964 -0.212007,-0.53784 -0.880469,-3.05433 -1.485461,-5.59197 -0.605015,-2.53764 -1.439596,-5.53847 -1.854676,-6.66862 -1.386684,-3.77528 -1.625422,-5.68538 -1.222405,-9.78101 0.386749,-3.93031 0.234558,-7.49204 -0.339164,-7.93803 -0.298912,-0.23219 -0.344013,-0.37657 -0.198845,-0.636 0.1359,-0.24285 0.104798,-0.48013 -0.112609,-0.85894 -0.283552,-0.49404 -0.278153,-0.54769 0.09617,-0.95661 0.278321,-0.30404 0.354214,-0.54491 0.254481,-0.80792 -0.07814,-0.20615 -0.06717,-0.51894 0.02437,-0.69519 0.275239,-0.52996 0.291793,-3.00704 0.02078,-3.09829 -0.276051,-0.0929 -0.314057,-0.72558 -0.05325,-0.88678 0.250945,-0.15503 0.01553,-3.11788 -0.275861,-3.47023 -0.127801,-0.15456 -0.288163,-0.59267 -0.356363,-0.97354 -0.103006,-0.57525 -0.06063,-0.72641 0.250348,-0.89284 0.222995,-0.11944 0.330803,-0.31377 0.266687,-0.48092 -0.05922,-0.15432 -0.006,-0.40299 0.118079,-0.55258 0.124171,-0.14954 0.24311,-0.60987 0.264346,-1.0228 0.02269,-0.44009 0.19445,-0.92745 0.415224,-1.17768 0.549953,-0.62334 0.805557,-1.32563 1.011855,-2.78034 0.179137,-1.26307 -0.01147,-2.98865 -0.381446,-3.45495 -0.08179,-0.10296 -0.209093,-0.52463 -0.282884,-0.93684 -0.07379,-0.41219 -0.238619,-0.87591 -0.366253,-1.03049 -0.127634,-0.15456 -0.283146,-0.67549 -0.345566,-1.15757 -0.06242,-0.48211 -0.284245,-1.15662 -0.492956,-1.49894 -0.208711,-0.34231 -0.379774,-0.76994 -0.380156,-0.95027 -3.75e-4,-0.18035 -0.08576,-0.32789 -0.189696,-0.32789 -0.117984,0 -0.145168,-0.37284 -0.07238,-0.99222 0.115857,-0.98567 -0.249536,-3.17091 -0.773905,-4.6288 -0.896164,-2.4913 -1.090136,-3.35342 -1.104421,-4.90854 -0.0096,-1.03799 0.06682,-1.71154 0.210335,-1.85539 0.17577,-0.17606 3.347448,-0.15528 14.427013,0.0948 8.551959,0.19302 25.084951,0.36525 41.560612,0.43293 l 27.359104,0.11227 0.7821,-0.49372 c 0.98157,-0.61963 1.98602,-1.61735 2.58757,-2.57013 l 0.4641,-0.73518 v -7.78682 c 0,-7.3007 0.0215,-7.8303 0.35829,-8.48197 0.39722,-0.77063 1.1871,-1.56644 2.43349,-2.45164 0.72324,-0.51369 0.97617,-0.58547 2.061,-0.58483 1.27911,7.2e-4 3.83118,0.3599 5.21239,0.73361 1.34675,0.36434 3.95349,3.33669 4.54759,5.18564 0.0963,0.29924 0.43472,1.97744 0.75238,3.72942 0.33351,1.83922 1.04432,4.72913 1.68211,6.8387 0.6075,2.00949 1.4964,5.382 1.97534,7.49467 0.80305,3.54213 0.88281,4.12524 1.02521,7.49467 0.085,2.00947 0.24237,3.93485 0.34984,4.27837 0.59066,1.88812 2.70987,4.08606 5.03586,5.22266 l 1.45347,0.71034 8.24405,0.0191 3.59015,1.72 c 2.7125,1.29951 3.83476,1.7429 4.59034,1.81363 0.5502,0.0516 2.85512,0.22718 5.12234,0.39053 2.48748,0.17916 4.43985,0.41049 4.92383,0.5833 1.03698,0.37043 2.4889,1.52385 3.19767,2.5405 0.89131,1.27807 3.12266,3.46498 3.98359,3.90404 0.68544,0.3497 0.97731,0.38678 2.21158,0.28093 2.46025,-0.21093 4.56216,-0.66514 5.45033,-1.17769 1.50447,-0.86838 3.6138,-2.34037 5.45724,-3.80825 1.41113,-1.12358 2.16556,-1.57301 3.46618,-2.06479 1.60834,-0.60815 1.75109,-0.62862 4.37941,-0.62783 1.49423,3.8e-4 4.36102,0.0939 6.37049,0.20759 4.38276,0.24807 5.69064,0.57947 9.41743,2.38604 1.36411,0.66125 3.11263,1.39 3.88541,1.61945 2.17877,0.64682 2.66425,0.95393 3.27124,2.06943 0.29569,0.54327 0.96638,1.46783 1.49043,2.05462 0.52406,0.58677 1.22494,1.40615 1.55754,1.82083 0.55702,0.69455 0.7121,0.77156 1.96733,0.97721 1.70146,0.27878 2.64298,0.81318 3.92148,2.22602 0.86692,0.95799 1.08794,1.37061 1.6323,3.04741 1.2494,3.84886 2.50181,5.59318 4.0156,5.59318 1.28086,0 1.99545,-0.50937 2.88306,-2.05503 1.07664,-1.87503 1.7903,-2.71752 2.80662,-3.31305 0.81181,-0.47575 1.01011,-0.50774 3.22729,-0.5204 2.93179,-0.0167 3.00656,0.0191 5.64238,2.68192 4.57841,4.6257 4.88656,4.83568 8.331,5.66962 0.82129,0.19875 1.84438,0.55779 2.2735,0.79762 0.94227,0.52664 3.65561,2.80065 5.97969,5.0115 1.5892,1.51176 1.79748,1.64702 3.09853,2.01205 0.76709,0.21523 2.0437,0.61075 2.83696,0.87894 0.92385,0.31231 1.63101,0.44626 1.96733,0.37258 0.28881,-0.0633 1.52124,-0.23076 2.73878,-0.37215 1.97294,-0.22909 2.40649,-0.35034 3.98597,-1.11405 2.18914,-1.05834 2.87184,-1.527 5.19257,-3.56411 3.34195,-2.93347 6.11155,-4.87462 9.10736,-6.38339 1.17816,-0.59334 1.47887,-0.67176 2.14552,-0.55965 2.07253,0.34855 3.79726,1.64921 4.78718,3.60997 1.0323,2.04495 3.71509,3.92387 5.30508,3.71533 3.10236,-0.40651 5.07003,-0.52427 7.35851,-0.4404 3.26599,0.11968 7.15307,-0.12422 10.21147,-0.64076 1.48854,-0.25139 3.23541,-0.40141 4.79316,-0.41168 2.30102,-0.0143 2.51327,0.0143 3.46617,0.48786 0.55831,0.27718 1.92763,1.20038 3.04287,2.05154 1.11525,0.85116 2.54863,1.91672 3.18525,2.36789 l 1.15738,0.82032 1.40522,-0.11729 c 0.77288,-0.0645 2.03759,-0.28995 2.81044,-0.50105 2.38349,-0.65098 3.10522,-0.74106 4.51677,-0.56381 1.04623,0.13138 1.44426,0.27357 1.84771,0.66005 0.60243,0.57721 0.94265,1.58006 0.94265,2.77891 0,0.81941 -0.053,0.9029 -1.23227,1.9456 -1.70051,1.5034 -3.85006,3.01444 -6.52553,4.58724 -1.24639,0.7327 -3.45375,2.03137 -4.9052,2.88593 -3.50534,2.06386 -5.65384,3.0498 -13.66163,6.2692 -7.74335,3.11311 -8.32741,3.40741 -13.86493,6.98418 -5.37101,3.46904 -8.10525,5.76565 -15.41335,12.94643 -3.76573,3.70027 -4.92383,5.06381 -8.28943,9.7607 -0.95994,1.33965 -3.36656,4.37487 -5.34808,6.74506 -3.0658,3.66731 -4.70883,5.39036 -11.02486,11.56354 -4.92287,4.81155 -8.28489,7.93445 -9.98405,9.27457 -1.40914,1.11121 -3.62216,2.86037 -4.91786,3.88684 -3.23899,2.56631 -6.88863,6.17294 -8.14013,8.04482 -0.55831,0.83489 -1.28568,1.77092 -1.61634,2.08008 -0.79947,0.74737 -2.1785,2.53955 -2.47004,3.20985 -0.12851,0.29555 -0.42783,0.85427 -0.66521,1.24159 -0.23745,0.38732 -0.58695,1.10399 -0.77687,1.5926 -0.37127,0.95519 -0.36735,1.16321 0.33824,18.03221 0.47437,11.34067 0.47711,12.69202 0.0289,14.33337 -0.53703,1.96724 -0.96472,2.57634 -3.15085,4.48763 -1.38749,1.21292 -2.1317,1.71544 -3.08085,2.08026 -0.68827,0.26456 -1.83122,0.88818 -2.53979,1.38584 -0.70864,0.49764 -1.87558,1.2005 -2.5933,1.56191 -1.56073,0.78596 -3.92649,2.5448 -5.26805,3.91694 -1.23493,1.26287 -2.09148,2.69506 -2.97408,4.97327 -0.38431,0.99184 -1.36755,2.90528 -2.18498,4.25233 -2.1683,3.57271 -2.76792,4.90543 -2.89644,6.43714 -0.0965,1.15244 -0.0592,1.35862 0.36812,2.03573 0.62948,0.99719 2.97503,3.12409 4.22271,3.82927 0.54795,0.30966 1.60992,1.17038 2.35989,1.9127 1.06173,1.05084 1.55349,1.73108 2.221,3.07226 1.50806,3.02997 1.41948,4.78408 -0.42175,8.35249 -0.73143,1.41755 -1.36826,3.00513 -1.78201,4.44272 l -0.64383,2.23684 0.21714,3.07846 c 0.19278,2.73305 0.18132,3.24569 -0.10295,4.56885 -0.17606,0.81975 -0.40842,2.43444 -0.51615,3.58824 -0.18777,2.00964 -0.17534,2.16735 0.2911,3.75283 0.44587,1.51539 0.48875,1.96127 0.50824,5.28502 0.0167,2.77604 -0.0604,4.09275 -0.32569,5.59723 -0.48182,2.73233 -0.44919,3.62144 0.17868,4.87151 0.68442,1.36253 1.73113,2.72301 2.57467,3.34673 0.37576,0.2778 1.87703,1.61986 3.33622,2.98244 1.45911,1.36248 3.16064,2.82191 3.78102,3.24329 1.39119,0.94473 3.77074,1.76942 5.61299,1.94529 3.16638,0.30233 3.97213,0.75897 7.74956,4.39088 2.79253,2.68503 3.55934,3.15634 7.0181,4.31181 3.36393,1.12391 5.57645,2.23966 6.93473,3.49699 1.86297,1.72477 2.96906,3.25739 3.60043,4.98904 0.76994,2.11169 1.5103,3.4516 2.71202,4.90854 1.12845,1.3681 1.87615,1.99356 5.41329,4.52824 1.33965,0.96001 3.0682,2.25229 3.84098,2.87183 1.65695,1.32799 3.62192,2.33975 6.54058,3.36775 2.38282,0.83931 3.54452,1.5399 5.34258,3.22204 2.37699,2.22355 5.51721,6.62466 6.68534,9.36941 0.68717,1.61477 0.92884,3.80037 0.78296,7.08069 -0.10774,2.42417 -0.10248,2.46693 0.69925,5.6333 0.74228,2.93156 0.78903,3.25357 0.57547,3.96639 -0.27782,0.92729 -1.75874,2.48485 -2.78058,2.92439 -0.63707,0.27407 -11.06404,0.35825 -113.49501,0.91613 -137.817942,0.75064 -125.367435,0.72011 -125.527486,0.3078 z"
       id="path1369"
       style="fill:#dddddd;fill-opacity:1;stroke:#000000;stroke-width:0.948087;stroke-miterlimit:4;stroke-dasharray:none"
       inkscape:connector-curvature="0" />
  </g>
</svg>
